External Loads File
version=1
nRows=78
nColumns=13
Range=5.000000e-03-10 seconds
endheader
time 	forceRightX 	forceRightY 	forceRightZ 	pointRightX 	pointRightY 	pointRightZ 	forceLeftX 	forceLeftY 	forceLeftZ 	pointLeftX 	pointLeftY 	pointLeftZ 		
0.005000 113.098542 131.023888 -0.000000 0.108337 0.240737 -0.144912 6.130018 106.001046 -0.000000 0.375396 0.417951 -0.379860
0.010000 112.725399 130.394453 -0.000000 0.108320 0.240786 -0.144909 4.700837 106.200335 -0.000000 0.375407 0.417531 -0.379874
0.015000 112.334412 129.895316 -0.000000 0.108316 0.240830 -0.144921 3.238725 106.406562 -0.000000 0.375375 0.417441 -0.379888
0.020000 112.039821 129.460413 -0.000000 0.108240 0.240873 -0.144847 1.903538 106.615774 -0.000000 0.375325 0.417308 -0.379901
0.025000 111.979741 128.959180 -0.000000 0.108211 0.240872 -0.144843 0.867391 106.823220 -0.000000 0.375273 0.417289 -0.379890
0.030000 111.686087 128.766542 -0.000000 0.108198 0.240927 -0.144815 -0.202085 107.036270 -0.000000 0.375225 0.417270 -0.379875
0.035000 111.527140 128.523308 -0.000000 0.108179 0.240959 -0.144804 -0.975877 107.260301 -0.000000 0.375181 0.417239 -0.379884
0.040000 111.511371 128.170127 -0.000000 0.108165 0.241021 -0.144809 -1.430336 107.507663 -0.000000 0.375176 0.417199 -0.379876
0.045000 111.350293 127.908973 -0.000000 0.108153 0.241064 -0.144800 -1.778421 107.786664 -0.000000 0.375187 0.417150 -0.379871
0.050000 111.132832 127.653547 -0.000000 0.108130 0.241074 -0.144805 -1.931973 108.102173 -0.000000 0.375199 0.417095 -0.379876
0.055000 110.797020 127.497456 -0.000000 0.108125 0.241119 -0.144801 -1.951724 108.450154 -0.000000 0.375219 0.417036 -0.379876
0.060000 110.690250 127.195836 -0.000000 0.108114 0.241164 -0.144791 -1.557696 108.830716 -0.000000 0.375229 0.416975 -0.379885
0.065000 110.754871 126.841770 -0.000000 0.108097 0.241190 -0.144807 -0.825137 109.234635 -0.000000 0.375231 0.416914 -0.379906
0.070000 111.875715 125.670561 -0.000000 0.108092 0.241195 -0.144793 0.973179 109.645455 -0.000000 0.375242 0.416854 -0.379891
0.075000 111.872006 125.606120 -0.000000 0.108091 0.241242 -0.144795 1.877212 110.049626 -0.000000 0.375248 0.416798 -0.379897
0.080000 112.085976 125.450656 -0.000000 0.108076 0.241246 -0.144788 2.960889 110.423927 -0.000000 0.375324 0.416747 -0.379897
0.085000 112.300194 125.367237 -0.000000 0.108064 0.241266 -0.144790 3.971722 110.754387 -0.000000 0.375394 0.416704 -0.379890
0.090000 112.525523 125.298393 -0.000000 0.108060 0.241274 -0.144792 4.905349 111.036983 -0.000000 0.375459 0.416668 -0.379878
0.095000 112.728516 125.229816 -0.000000 0.108053 0.241297 -0.144788 5.720569 111.272118 -0.000000 0.375535 0.416637 -0.379885
0.100000 113.042393 125.022156 -0.000000 0.108046 0.241315 -0.144791 6.510085 111.456965 -0.000000 0.375602 0.416613 -0.379877
0.105000 113.140110 124.973530 -0.000000 0.108040 0.241342 -0.144774 6.969212 111.624182 -0.000000 0.375620 0.416589 -0.379888
0.110000 113.121661 124.995182 -0.000000 0.108025 0.241364 -0.144777 7.195035 111.790873 -0.000000 0.375632 0.416569 -0.379890
0.115000 113.211183 124.869122 -0.000000 0.108026 0.241362 -0.144789 7.424500 111.961971 -0.000000 0.375652 0.416546 -0.379892
0.120000 113.292171 124.681601 -0.000000 0.108013 0.241400 -0.144784 7.616577 112.156754 -0.000000 0.375662 0.416524 -0.379890
0.125000 113.265578 124.521785 -0.000000 0.108000 0.241431 -0.144791 7.731637 112.379636 -0.000000 0.375692 0.416497 -0.379900
0.130000 113.243496 124.306858 -0.000000 0.107989 0.241452 -0.144790 7.879685 112.603499 -0.000000 0.375716 0.416472 -0.379904
0.135000 113.009271 124.253222 -0.000000 0.107986 0.241475 -0.144785 7.846038 112.815020 -0.000000 0.375749 0.416444 -0.379908
0.140000 113.001940 123.967151 -0.000000 0.107963 0.241497 -0.144782 7.993104 112.963200 -0.000000 0.375768 0.416415 -0.379900
0.145000 112.881491 123.757387 -0.000000 0.107954 0.241519 -0.144794 7.969379 113.056801 -0.000000 0.375789 0.416383 -0.379900
0.150000 112.632742 123.638014 -0.000000 0.107944 0.241566 -0.144797 7.726590 113.097547 -0.000000 0.375817 0.416440 -0.379917
0.155000 112.525678 123.359026 -0.000000 0.107943 0.241605 -0.144801 7.478394 113.075393 -0.000000 0.375835 0.416409 -0.379910
0.160000 112.272030 123.177174 -0.000000 0.107921 0.241627 -0.144804 6.928174 113.016232 -0.000000 0.375865 0.416463 -0.379914
0.165000 112.071180 122.916368 -0.000000 0.107921 0.241675 -0.144799 6.247969 112.919498 -0.000000 0.375885 0.416517 -0.379917
0.170000 111.657996 122.838100 -0.000000 0.107913 0.241698 -0.144813 5.208723 112.809961 -0.000000 0.375916 0.416570 -0.379925
0.175000 111.334173 122.691313 -0.000000 0.107905 0.241721 -0.144809 4.133514 112.688547 -0.000000 0.375940 0.416535 -0.379925
0.180000 111.069752 122.522773 -0.000000 0.107903 0.241756 -0.144822 3.083160 112.588876 -0.000000 0.375957 0.416584 -0.379925
0.185000 110.638960 122.543794 -0.000000 0.107888 0.241798 -0.144817 1.949567 112.555475 -0.000000 0.375972 0.416464 -0.379926
0.190000 110.364095 122.449893 -0.000000 0.107882 0.241821 -0.144814 1.106050 112.617212 -0.000000 0.376004 0.416424 -0.379937
0.195000 110.222412 122.231761 -0.000000 0.107883 0.241848 -0.144817 0.587791 112.803961 -0.000000 0.376018 0.416386 -0.379932
0.200000 109.997848 122.049953 -0.000000 0.107879 0.241877 -0.144821 0.221859 113.130610 -0.000000 0.376037 0.416337 -0.379934
0.205000 109.486498 122.067018 -0.000000 0.107880 0.241925 -0.144844 -0.193050 113.592465 -0.000000 0.376056 0.416289 -0.379942
0.210000 109.069204 121.942024 -0.000000 0.107877 0.241962 -0.144834 -0.339749 114.161957 -0.000000 0.376064 0.416316 -0.379939
0.215000 108.584046 121.839541 -0.000000 0.107869 0.242007 -0.144833 -0.425027 114.779354 -0.000000 0.376092 0.416260 -0.379953
0.220000 108.150917 121.673540 -0.000000 0.107860 0.242040 -0.144848 -0.393812 115.368538 -0.000000 0.376121 0.416128 -0.379964
0.225000 107.742014 121.486111 -0.000000 0.107869 0.242097 -0.144839 -0.309518 115.870346 -0.000000 0.376145 0.416079 -0.379979
0.230000 107.566332 121.118641 -0.000000 0.107856 0.242147 -0.144847 -0.017240 116.255618 -0.000000 0.376167 0.416026 -0.379988
0.235000 107.190028 120.997669 -0.000000 0.107847 0.242200 -0.144864 0.005120 116.518350 -0.000000 0.376199 0.415974 -0.379995
0.240000 106.914143 120.893165 -0.000000 0.107829 0.242227 -0.144861 0.013164 116.672751 -0.000000 0.376232 0.415849 -0.379992
0.245000 106.965273 120.613538 -0.000000 0.107819 0.242277 -0.144873 0.235195 116.743835 -0.000000 0.376265 0.415798 -0.380002
0.250000 106.994237 120.449491 -0.000000 0.107805 0.242319 -0.144857 0.355080 116.762522 -0.000000 0.376304 0.415670 -0.380001
0.255000 106.981485 120.399382 -0.000000 0.107797 0.242378 -0.144873 0.374032 116.763786 -0.000000 0.376342 0.415542 -0.380000
0.260000 106.872450 120.501914 -0.000000 0.107770 0.242415 -0.144873 0.253094 116.775613 -0.000000 0.376383 0.415424 -0.380006
0.265000 107.118342 120.343339 -0.000000 0.107748 0.242453 -0.144858 0.442463 116.808315 -0.000000 0.376422 0.415377 -0.380005
0.270000 107.144035 120.408971 -0.000000 0.107746 0.242505 -0.144868 0.418328 116.864536 -0.000000 0.376467 0.415326 -0.379988
0.275000 107.240889 120.397421 -0.000000 0.107716 0.242544 -0.144855 0.513429 116.939620 -0.000000 0.376524 0.415280 -0.379999
0.280000 107.243842 120.409093 -0.000000 0.107703 0.242661 -0.144867 0.605454 117.027283 -0.000000 0.376584 0.415230 -0.380017
0.285000 107.299637 120.300953 -0.000000 0.107680 0.242723 -0.144879 0.848983 117.122536 -0.000000 0.376651 0.415175 -0.380015
0.290000 107.261299 120.238517 -0.000000 0.107667 0.242775 -0.144870 1.084165 117.226145 -0.000000 0.376715 0.415123 -0.380010
0.295000 107.522453 119.911405 -0.000000 0.107643 0.242880 -0.144872 1.664688 117.334034 -0.000000 0.376770 0.415065 -0.380030
0.300000 107.472901 119.873315 -0.000000 0.107622 0.242943 -0.144873 1.976959 117.452268 -0.000000 0.376857 0.415004 -0.380034
0.305000 107.489522 119.759556 -0.000000 0.107606 0.243003 -0.144877 2.384233 117.570524 -0.000000 0.376907 0.414942 -0.380033
0.310000 107.343137 119.729407 -0.000000 0.107582 0.243058 -0.144889 2.669838 117.682378 -0.000000 0.376977 0.414875 -0.380047
0.315000 107.261437 119.520492 -0.000000 0.107563 0.243156 -0.144895 3.093147 117.774341 -0.000000 0.377043 0.414804 -0.380065
0.320000 107.019861 119.274329 -0.000000 0.107539 0.243205 -0.144900 3.465100 117.846321 -0.000000 0.377126 0.414733 -0.380087
0.325000 106.559309 119.008509 -0.000000 0.107511 0.243271 -0.144907 3.715239 117.897268 -0.000000 0.377197 0.414660 -0.380105
0.330000 105.720155 118.870389 -0.000000 0.107487 0.243349 -0.144911 3.635653 117.931171 -0.000000 0.377270 0.414584 -0.380111
0.335000 105.048572 118.408239 -0.000000 0.107482 0.243403 -0.144914 3.694454 117.927681 -0.000000 0.377342 0.414511 -0.380098
0.340000 104.043895 118.109676 -0.000000 0.107456 0.243477 -0.144937 3.320564 117.896567 -0.000000 0.377430 0.414439 -0.380105
0.345000 103.330446 117.462074 -0.000000 0.107452 0.243543 -0.144941 3.094079 117.814346 -0.000000 0.377518 0.414371 -0.380116
0.350000 102.532718 116.836079 -0.000000 0.107454 0.243627 -0.144946 2.617540 117.685672 -0.000000 0.377617 0.414304 -0.380118
0.355000 101.647500 116.275548 -0.000000 0.107430 0.243698 -0.144944 1.869607 117.505549 -0.000000 0.377728 0.414242 -0.380132
0.360000 101.116736 115.432054 -0.000000 0.107422 0.243770 -0.144947 1.298709 117.272911 -0.000000 0.377837 0.414184 -0.380141
0.365000 100.390240 114.817998 -0.000000 0.107420 0.243871 -0.144941 0.370012 117.010738 -0.000000 0.377943 0.414128 -0.380157
0.370000 99.876963 114.099964 -0.000000 0.107414 0.243947 -0.144953 -0.462234 116.735837 -0.000000 0.378051 0.414075 -0.380155
0.375000 99.609648 113.255669 -0.000000 0.107402 0.244018 -0.144961 -1.110832 116.474084 -0.000000 0.378170 0.414019 -0.380165
0.380000 99.300183 112.517847 -0.000000 0.107385 0.244088 -0.144967 -1.813492 116.243355 -0.000000 0.378273 0.413959 -0.380183
0.385000 99.097070 111.733286 -0.000000 0.107367 0.244148 -0.144972 -2.356276 116.062001 -0.000000 0.378374 0.413884 -0.380174
0.390000 98.945903 110.949785 -0.000000 0.107338 0.244227 -0.144960 -2.741222 115.942561 -0.000000 0.378465 0.413802 -0.380170
